<svg xmlns="http://www.w3.org/2000/svg" xmlns:xlink="http://www.w3.org/1999/xlink" width="500" zoomAndPan="magnify" viewBox="0 0 375 374.999991" height="500" preserveAspectRatio="xMidYMid meet" version="1.0"><defs><g/></defs><rect x="-37.5" width="450" fill="#ffffff" y="-37.499999" height="449.999989" fill-opacity="1"/><rect x="-37.5" width="450" fill="#ffffff" y="-37.499999" height="449.999989" fill-opacity="1"/><rect x="-37.5" width="450" fill="#ffffff" y="-37.499999" height="449.999989" fill-opacity="1"/><g fill="#000000" fill-opacity="1"><g transform="translate(78.953349, 228.02349)"><g><path d="M 59.375 -137.03125 C 66.664062 -137.03125 73.789062 -135.96875 80.75 -133.84375 C 87.707031 -131.71875 92.875 -129.625 96.25 -127.5625 L 101.140625 -124.296875 L 88.734375 -99.828125 C 87.753906 -100.484375 86.394531 -101.328125 84.65625 -102.359375 C 82.914062 -103.390625 79.65625 -104.773438 74.875 -106.515625 C 70.09375 -108.253906 65.632812 -109.125 61.5 -109.125 C 56.382812 -109.125 52.441406 -108.035156 49.671875 -105.859375 C 46.898438 -103.691406 45.515625 -100.757812 45.515625 -97.0625 C 45.515625 -95.207031 46.164062 -93.492188 47.46875 -91.921875 C 48.769531 -90.347656 51 -88.660156 54.15625 -86.859375 C 57.3125 -85.066406 60.082031 -83.625 62.46875 -82.53125 C 64.863281 -81.445312 68.5625 -79.816406 73.5625 -77.640625 C 82.269531 -73.941406 89.691406 -68.910156 95.828125 -62.546875 C 101.972656 -56.191406 105.046875 -48.988281 105.046875 -40.9375 C 105.046875 -33.21875 103.660156 -26.476562 100.890625 -20.71875 C 98.117188 -14.957031 94.3125 -10.441406 89.46875 -7.171875 C 84.632812 -3.910156 79.28125 -1.492188 73.40625 0.078125 C 67.53125 1.660156 61.171875 2.453125 54.328125 2.453125 C 48.453125 2.453125 42.6875 1.851562 37.03125 0.65625 C 31.375 -0.539062 26.640625 -2.035156 22.828125 -3.828125 C 19.023438 -5.628906 15.601562 -7.398438 12.5625 -9.140625 C 9.519531 -10.878906 7.289062 -12.347656 5.875 -13.546875 L 3.75 -15.328125 L 19.078125 -41.109375 C 20.390625 -40.015625 22.1875 -38.625 24.46875 -36.9375 C 26.75 -35.257812 30.796875 -33.003906 36.609375 -30.171875 C 42.429688 -27.347656 47.570312 -25.9375 52.03125 -25.9375 C 64.976562 -25.9375 71.453125 -30.34375 71.453125 -39.15625 C 71.453125 -41 70.988281 -42.707031 70.0625 -44.28125 C 69.132812 -45.863281 67.5 -47.441406 65.15625 -49.015625 C 62.820312 -50.597656 60.757812 -51.847656 58.96875 -52.765625 C 57.175781 -53.691406 54.238281 -55.101562 50.15625 -57 C 46.082031 -58.90625 43.066406 -60.347656 41.109375 -61.328125 C 32.953125 -65.359375 26.644531 -70.390625 22.1875 -76.421875 C 17.726562 -82.460938 15.5 -88.960938 15.5 -95.921875 C 15.5 -107.992188 19.957031 -117.863281 28.875 -125.53125 C 37.789062 -133.195312 47.957031 -137.03125 59.375 -137.03125 Z M 59.375 -137.03125 "/></g></g></g><g fill="#000000" fill-opacity="1"><g transform="translate(173.2019, 228.02349)"><g><path d="M 81.40625 -27.734375 C 86.070312 -27.734375 90.609375 -28.4375 95.015625 -29.84375 C 99.421875 -31.257812 102.65625 -32.625 104.71875 -33.9375 L 107.828125 -36.046875 L 120.875 -9.953125 C 120.4375 -9.628906 119.835938 -9.191406 119.078125 -8.640625 C 118.316406 -8.097656 116.550781 -7.09375 113.78125 -5.625 C 111.007812 -4.15625 108.046875 -2.875 104.890625 -1.78125 C 101.734375 -0.695312 97.597656 0.273438 92.484375 1.140625 C 87.378906 2.015625 82.109375 2.453125 76.671875 2.453125 C 64.160156 2.453125 52.304688 -0.617188 41.109375 -6.765625 C 29.910156 -12.910156 20.882812 -21.363281 14.03125 -32.125 C 7.175781 -42.894531 3.75 -54.535156 3.75 -67.046875 C 3.75 -76.503906 5.757812 -85.582031 9.78125 -94.28125 C 13.8125 -102.988281 19.171875 -110.441406 25.859375 -116.640625 C 32.546875 -122.835938 40.347656 -127.785156 49.265625 -131.484375 C 58.179688 -135.179688 67.316406 -137.03125 76.671875 -137.03125 C 85.367188 -137.03125 93.382812 -135.992188 100.71875 -133.921875 C 108.0625 -131.859375 113.257812 -129.796875 116.3125 -127.734375 L 120.875 -124.625 L 107.828125 -98.53125 C 107.066406 -99.175781 105.921875 -99.960938 104.390625 -100.890625 C 102.867188 -101.816406 99.820312 -103.039062 95.25 -104.5625 C 90.6875 -106.082031 86.070312 -106.84375 81.40625 -106.84375 C 74.007812 -106.84375 67.375 -105.644531 61.5 -103.25 C 55.625 -100.863281 50.972656 -97.710938 47.546875 -93.796875 C 44.117188 -89.878906 41.507812 -85.664062 39.71875 -81.15625 C 37.925781 -76.644531 37.03125 -72.050781 37.03125 -67.375 C 37.03125 -57.144531 40.863281 -47.976562 48.53125 -39.875 C 56.195312 -31.78125 67.15625 -27.734375 81.40625 -27.734375 Z M 81.40625 -27.734375 "/></g></g></g></svg>