<?xml version="1.0" encoding="UTF-8" standalone="no"?>
<svg
   width="320"
   zoomAndPan="magnify"
   viewBox="0 0 240 75"
   height="100"
   preserveAspectRatio="xMidYMid"
   version="1.0"
   id="svg89"
   sodipodi:docname="Silvano cibarelli (completo).svg"
   inkscape:version="1.3 (0e150ed6c4, 2023-07-21)"
   xmlns:inkscape="http://www.inkscape.org/namespaces/inkscape"
   xmlns:sodipodi="http://sodipodi.sourceforge.net/DTD/sodipodi-0.dtd"
   xmlns="http://www.w3.org/2000/svg"
   xmlns:svg="http://www.w3.org/2000/svg">
  <sodipodi:namedview
     id="namedview89"
     pagecolor="#ffffff"
     bordercolor="#000000"
     borderopacity="0.25"
     inkscape:showpageshadow="2"
     inkscape:pageopacity="0.0"
     inkscape:pagecheckerboard="0"
     inkscape:deskcolor="#d1d1d1"
     showgrid="true"
     inkscape:zoom="1.018"
     inkscape:cx="240.17682"
     inkscape:cy="141.94499"
     inkscape:window-width="1366"
     inkscape:window-height="705"
     inkscape:window-x="-8"
     inkscape:window-y="-8"
     inkscape:window-maximized="1"
     inkscape:current-layer="svg89">
    <inkscape:grid
       id="grid116"
       units="px"
       originx="0"
       originy="0"
       spacingx="0.75"
       spacingy="0.74999998"
       empcolor="#0099e5"
       empopacity="0.30196078"
       color="#0099e5"
       opacity="0.14901961"
       empspacing="5"
       dotted="false"
       gridanglex="30"
       gridanglez="30"
       visible="true" />
  </sodipodi:namedview>
  <defs
     id="defs1">
    <g
       id="g1" />
  </defs>
  <g
     fill="#000000"
     fill-opacity="1"
     id="g5"
     transform="translate(-66.306483,-152.50491)"
     style="opacity:1;mix-blend-mode:normal;fill:#4756df;fill-opacity:1">
    <g
       transform="translate(69.903731,195.74999)"
       id="g4"
       style="fill:#4756df;fill-opacity:1">
      <g
         id="g3"
         style="fill:#4756df;fill-opacity:1">
        <path
           d="m 9.390625,-17.53125 c 0.976563,0 1.941406,0.109375 2.890625,0.328125 0.957031,0.21875 1.664062,0.445313 2.125,0.671875 l 0.703125,0.328125 -1.921875,3.84375 c -1.335938,-0.707031 -2.601562,-1.0625 -3.796875,-1.0625 -0.65625,0 -1.125,0.07422 -1.40625,0.21875 -0.273437,0.148437 -0.40625,0.417969 -0.40625,0.8125 0,0.09375 0.00781,0.1875 0.03125,0.28125 0.019531,0.08594 0.0625,0.167969 0.125,0.25 0.070313,0.07422 0.132813,0.136719 0.1875,0.1875 0.050781,0.05469 0.144531,0.117187 0.28125,0.1875 0.132813,0.0625 0.238281,0.109375 0.3125,0.140625 0.082031,0.03125 0.210937,0.08594 0.390625,0.15625 0.175781,0.0625 0.304688,0.117188 0.390625,0.15625 0.09375,0.03125 0.242187,0.07813 0.453125,0.140625 0.207031,0.0625 0.367188,0.105469 0.484375,0.125 0.675781,0.210937 1.269531,0.433594 1.78125,0.671875 0.507813,0.242188 1.046875,0.574219 1.609375,1 0.570312,0.417969 1.007812,0.949219 1.3125,1.59375 0.3125,0.636719 0.46875,1.367188 0.46875,2.1875 0,3.875 -2.6875,5.8125 -8.0625,5.8125 C 6.125,0.5 4.960938,0.3125 3.859375,-0.0625 2.765625,-0.4375 1.976562,-0.816406 1.5,-1.203125 L 0.765625,-1.796875 3.15625,-5.8125 c 0.175781,0.15625 0.40625,0.339844 0.6875,0.546875 0.289062,0.210937 0.8125,0.496094 1.5625,0.859375 0.757812,0.367188 1.414062,0.546875 1.96875,0.546875 1.21875,0 1.828125,-0.40625 1.828125,-1.21875 0,-0.375 -0.15625,-0.664063 -0.46875,-0.875 C 8.421875,-6.171875 7.894531,-6.410156 7.15625,-6.671875 6.414062,-6.941406 5.832031,-7.1875 5.40625,-7.40625 4.34375,-7.957031 3.5,-8.582031 2.875,-9.28125 2.257812,-9.976562 1.953125,-10.898438 1.953125,-12.046875 c 0,-1.726563 0.671875,-3.070313 2.015625,-4.03125 1.34375,-0.96875 3.148438,-1.453125 5.421875,-1.453125 z m 0,0"
           id="path3"
           style="fill:#4756df;fill-opacity:1" />
      </g>
    </g>
  </g>
  <g
     fill="#000000"
     fill-opacity="1"
     id="g8"
     transform="translate(-66.306483,-152.50491)"
     style="opacity:1;mix-blend-mode:normal;fill:#4756df;fill-opacity:1">
    <g
       transform="translate(83.115523,195.74999)"
       id="g7"
       style="fill:#4756df;fill-opacity:1">
      <g
         id="g6"
         style="fill:#4756df;fill-opacity:1">
        <path
           d="m 2.5625,-26.53125 c 0.6875,-0.6875 1.503906,-1.03125 2.453125,-1.03125 0.945313,0 1.765625,0.34375 2.453125,1.03125 0.6875,0.6875 1.03125,1.511719 1.03125,2.46875 0,0.949219 -0.34375,1.765625 -1.03125,2.453125 -0.6875,0.679687 -1.507812,1.015625 -2.453125,1.015625 -0.949219,0 -1.765625,-0.335938 -2.453125,-1.015625 -0.6875,-0.6875 -1.03125,-1.503906 -1.03125,-2.453125 0,-0.957031 0.34375,-1.78125 1.03125,-2.46875 z M 2,-17.03125 V 0 h 5.875 v -17.03125 z m 0,0"
           id="path5"
           style="fill:#4756df;fill-opacity:1" />
      </g>
    </g>
  </g>
  <g
     fill="#000000"
     fill-opacity="1"
     id="g11"
     transform="translate(-66.306483,-152.50491)"
     style="opacity:1;mix-blend-mode:normal;fill:#4756df;fill-opacity:1">
    <g
       transform="translate(90.01948,195.74999)"
       id="g10"
       style="fill:#4756df;fill-opacity:1">
      <g
         id="g9"
         style="fill:#4756df;fill-opacity:1">
        <path
           d="M 2,0 V -28.5625 H 7.875 V 0 Z m 0,0"
           id="path8"
           style="fill:#4756df;fill-opacity:1" />
      </g>
    </g>
  </g>
  <g
     fill="#000000"
     fill-opacity="1"
     id="g14"
     transform="translate(-66.306483,-152.50491)"
     style="opacity:1;mix-blend-mode:normal;fill:#4756df;fill-opacity:1">
    <g
       transform="translate(96.75744,195.74999)"
       id="g13"
       style="fill:#4756df;fill-opacity:1">
      <g
         id="g12"
         style="fill:#4756df;fill-opacity:1">
        <path
           d="m 6.3125,-17.03125 4.140625,9.265625 4.15625,-9.265625 h 6.96875 L 12.453125,0 H 8.46875 l -9.140625,-17.03125 z m 0,0"
           id="path11"
           style="fill:#4756df;fill-opacity:1" />
      </g>
    </g>
  </g>
  <g
     fill="#000000"
     fill-opacity="1"
     id="g17"
     transform="translate(-66.306483,-152.50491)"
     style="opacity:1;mix-blend-mode:normal;fill:#4756df;fill-opacity:1">
    <g
       transform="translate(114.55071,195.74999)"
       id="g16"
       style="fill:#4756df;fill-opacity:1">
      <g
         id="g15"
         style="fill:#4756df;fill-opacity:1">
        <path
           d="M 3.15625,-2.109375 C 1.5625,-3.847656 0.765625,-5.976562 0.765625,-8.5 c 0,-2.519531 0.796875,-4.65625 2.390625,-6.40625 1.59375,-1.75 3.617188,-2.625 6.078125,-2.625 2.257813,0 4.117187,0.710938 5.578125,2.125 v -1.625 h 5.875 V 0 H 14.875 V -1.921875 H 14.8125 C 13.351562,-0.304688 11.492188,0.5 9.234375,0.5 6.773438,0.5 4.75,-0.367188 3.15625,-2.109375 Z m 4.984375,-9.28125 C 7.378906,-10.640625 7,-9.675781 7,-8.5 c 0,1.179688 0.363281,2.136719 1.09375,2.875 0.738281,0.742188 1.703125,1.109375 2.890625,1.109375 1.15625,0 2.101563,-0.375 2.84375,-1.125 C 14.566406,-6.398438 14.9375,-7.351562 14.9375,-8.5 c 0,-1.175781 -0.382812,-2.140625 -1.140625,-2.890625 -0.761719,-0.75 -1.699219,-1.125 -2.8125,-1.125 -1.125,0 -2.074219,0.375 -2.84375,1.125 z m 0,0"
           id="path14"
           style="fill:#4756df;fill-opacity:1" />
      </g>
    </g>
  </g>
  <g
     fill="#000000"
     fill-opacity="1"
     id="g20"
     transform="translate(-66.306483,-152.50491)"
     style="opacity:1;mix-blend-mode:normal;fill:#4756df;fill-opacity:1">
    <g
       transform="translate(134.10354,195.74999)"
       id="g19"
       style="fill:#4756df;fill-opacity:1">
      <g
         id="g18"
         style="fill:#4756df;fill-opacity:1">
        <path
           d="m 2,0 v -17.03125 h 5.875 v 1.796875 h 0.0625 c 1.53125,-1.53125 3.15625,-2.296875 4.875,-2.296875 0.84375,0 1.675781,0.109375 2.5,0.328125 0.832031,0.21875 1.628906,0.5625 2.390625,1.03125 0.769531,0.46875 1.390625,1.132813 1.859375,1.984375 0.476562,0.84375 0.71875,1.835938 0.71875,2.96875 V 0 h -5.875 v -9.625 c 0,-0.882812 -0.28125,-1.660156 -0.84375,-2.328125 -0.5625,-0.664063 -1.296875,-1 -2.203125,-1 -0.886719,0 -1.6875,0.34375 -2.40625,1.03125 C 8.234375,-11.234375 7.875,-10.46875 7.875,-9.625 V 0 Z m 0,0"
           id="path17"
           style="fill:#4756df;fill-opacity:1" />
      </g>
    </g>
  </g>
  <g
     fill="#000000"
     fill-opacity="1"
     id="g23"
     transform="translate(-66.306483,-152.50491)"
     style="opacity:1;mix-blend-mode:normal;fill:#4756df;fill-opacity:1">
    <g
       transform="translate(152.92599,195.74999)"
       id="g22"
       style="fill:#4756df;fill-opacity:1">
      <g
         id="g21"
         style="fill:#4756df;fill-opacity:1">
        <path
           d="M 3.59375,-2.015625 C 1.707031,-3.703125 0.765625,-5.863281 0.765625,-8.5 c 0,-2.632812 0.984375,-4.796875 2.953125,-6.484375 1.96875,-1.695313 4.40625,-2.546875 7.3125,-2.546875 2.851562,0 5.257812,0.855469 7.21875,2.5625 1.957031,1.699219 2.9375,3.855469 2.9375,6.46875 0,2.617188 -0.960938,4.773438 -2.875,6.46875 C 16.394531,-0.34375 13.96875,0.5 11.03125,0.5 7.96875,0.5 5.488281,-0.335938 3.59375,-2.015625 Z m 4.546875,-9.375 C 7.378906,-10.640625 7,-9.675781 7,-8.5 c 0,1.179688 0.363281,2.136719 1.09375,2.875 0.738281,0.742188 1.703125,1.109375 2.890625,1.109375 1.15625,0 2.101563,-0.375 2.84375,-1.125 C 14.566406,-6.398438 14.9375,-7.351562 14.9375,-8.5 c 0,-1.175781 -0.382812,-2.140625 -1.140625,-2.890625 -0.761719,-0.75 -1.699219,-1.125 -2.8125,-1.125 -1.125,0 -2.074219,0.375 -2.84375,1.125 z m 0,0"
           id="path20"
           style="fill:#4756df;fill-opacity:1" />
      </g>
    </g>
  </g>
  <g
     fill="#000000"
     fill-opacity="1"
     id="g26">
    <g
       transform="translate(171.74844,195.74999)"
       id="g25">
      <g
         id="g24" />
    </g>
  </g>
  <g
     fill="#000000"
     fill-opacity="1"
     id="g29"
     transform="translate(-66.306483,-152.50491)"
     style="opacity:1;mix-blend-mode:normal;fill:#4756df;fill-opacity:1">
    <g
       transform="translate(177.68963,195.74999)"
       id="g28"
       style="fill:#4756df;fill-opacity:1">
      <g
         id="g27"
         style="fill:#4756df;fill-opacity:1">
        <path
           d="m 11.0625,-12.71875 c -1.117188,0 -2.074219,0.414062 -2.875,1.234375 C 7.394531,-10.671875 7,-9.6875 7,-8.53125 c 0,1.167969 0.394531,2.164062 1.1875,2.984375 0.800781,0.824219 1.757812,1.234375 2.875,1.234375 0.53125,0 1.03125,-0.066406 1.5,-0.203125 0.476562,-0.132813 0.828125,-0.269531 1.046875,-0.40625 l 0.296875,-0.1875 2,4.078125 C 15.75,-0.914062 15.53125,-0.773438 15.25,-0.609375 14.976562,-0.441406 14.347656,-0.21875 13.359375,0.0625 12.378906,0.351562 11.320312,0.5 10.1875,0.5 7.6875,0.5 5.488281,-0.378906 3.59375,-2.140625 1.707031,-3.898438 0.765625,-6.007812 0.765625,-8.46875 c 0,-2.476562 0.941406,-4.609375 2.828125,-6.390625 1.894531,-1.78125 4.09375,-2.671875 6.59375,-2.671875 1.132812,0 2.175781,0.136719 3.125,0.40625 0.957031,0.261719 1.632812,0.523438 2.03125,0.78125 l 0.5625,0.40625 -2,4.015625 c -0.730469,-0.53125 -1.679688,-0.796875 -2.84375,-0.796875 z m 0,0"
           id="path26"
           style="fill:#4756df;fill-opacity:1" />
      </g>
    </g>
  </g>
  <g
     fill="#000000"
     fill-opacity="1"
     id="g32"
     transform="translate(-66.306483,-152.50491)"
     style="opacity:1;mix-blend-mode:normal;fill:#4756df;fill-opacity:1">
    <g
       transform="translate(190.86822,195.74999)"
       id="g31"
       style="fill:#4756df;fill-opacity:1">
      <g
         id="g30"
         style="fill:#4756df;fill-opacity:1">
        <path
           d="m 2.5625,-26.53125 c 0.6875,-0.6875 1.503906,-1.03125 2.453125,-1.03125 0.945313,0 1.765625,0.34375 2.453125,1.03125 0.6875,0.6875 1.03125,1.511719 1.03125,2.46875 0,0.949219 -0.34375,1.765625 -1.03125,2.453125 -0.6875,0.679687 -1.507812,1.015625 -2.453125,1.015625 -0.949219,0 -1.765625,-0.335938 -2.453125,-1.015625 -0.6875,-0.6875 -1.03125,-1.503906 -1.03125,-2.453125 0,-0.957031 0.34375,-1.78125 1.03125,-2.46875 z M 2,-17.03125 V 0 h 5.875 v -17.03125 z m 0,0"
           id="path29"
           style="fill:#4756df;fill-opacity:1" />
      </g>
    </g>
  </g>
  <g
     fill="#000000"
     fill-opacity="1"
     id="g35"
     transform="translate(-66.306483,-152.50491)"
     style="opacity:1;mix-blend-mode:normal;fill:#4756df;fill-opacity:1">
    <g
       transform="translate(197.77218,195.74999)"
       id="g34"
       style="fill:#4756df;fill-opacity:1">
      <g
         id="g33"
         style="fill:#4756df;fill-opacity:1">
        <path
           d="m 19.53125,-14.90625 c 1.59375,1.75 2.390625,3.886719 2.390625,6.40625 0,2.523438 -0.796875,4.652344 -2.390625,6.390625 C 17.9375,-0.367188 15.910156,0.5 13.453125,0.5 11.191406,0.5 9.332031,-0.304688 7.875,-1.921875 H 7.796875 V 0 H 2 v -28.5625 h 5.875 v 13.15625 c 1.457031,-1.414062 3.316406,-2.125 5.578125,-2.125 2.457031,0 4.484375,0.875 6.078125,2.625 z M 14.578125,-5.625 c 0.726563,-0.738281 1.09375,-1.695312 1.09375,-2.875 0,-1.175781 -0.386719,-2.140625 -1.15625,-2.890625 -0.761719,-0.75 -1.703125,-1.125 -2.828125,-1.125 -1.105469,0 -2.042969,0.375 -2.8125,1.125 -0.761719,0.75 -1.140625,1.714844 -1.140625,2.890625 0,1.148438 0.367187,2.101562 1.109375,2.859375 0.75,0.75 1.695312,1.125 2.84375,1.125 1.195312,0 2.160156,-0.367187 2.890625,-1.109375 z m 0,0"
           id="path32"
           style="fill:#4756df;fill-opacity:1" />
      </g>
    </g>
  </g>
  <g
     fill="#000000"
     fill-opacity="1"
     id="g38"
     transform="translate(-66.306483,-152.50491)"
     style="opacity:1;mix-blend-mode:normal;fill:#4756df;fill-opacity:1">
    <g
       transform="translate(217.325,195.74999)"
       id="g37"
       style="fill:#4756df;fill-opacity:1">
      <g
         id="g36"
         style="fill:#4756df;fill-opacity:1">
        <path
           d="M 3.15625,-2.109375 C 1.5625,-3.847656 0.765625,-5.976562 0.765625,-8.5 c 0,-2.519531 0.796875,-4.65625 2.390625,-6.40625 1.59375,-1.75 3.617188,-2.625 6.078125,-2.625 2.257813,0 4.117187,0.710938 5.578125,2.125 v -1.625 h 5.875 V 0 H 14.875 V -1.921875 H 14.8125 C 13.351562,-0.304688 11.492188,0.5 9.234375,0.5 6.773438,0.5 4.75,-0.367188 3.15625,-2.109375 Z m 4.984375,-9.28125 C 7.378906,-10.640625 7,-9.675781 7,-8.5 c 0,1.179688 0.363281,2.136719 1.09375,2.875 0.738281,0.742188 1.703125,1.109375 2.890625,1.109375 1.15625,0 2.101563,-0.375 2.84375,-1.125 C 14.566406,-6.398438 14.9375,-7.351562 14.9375,-8.5 c 0,-1.175781 -0.382812,-2.140625 -1.140625,-2.890625 -0.761719,-0.75 -1.699219,-1.125 -2.8125,-1.125 -1.125,0 -2.074219,0.375 -2.84375,1.125 z m 0,0"
           id="path35"
           style="fill:#4756df;fill-opacity:1" />
      </g>
    </g>
  </g>
  <g
     fill="#000000"
     fill-opacity="1"
     id="g41"
     transform="translate(-66.306483,-152.50491)"
     style="opacity:1;mix-blend-mode:normal;fill:#4756df;fill-opacity:1">
    <g
       transform="translate(236.87783,195.74999)"
       id="g40"
       style="fill:#4756df;fill-opacity:1">
      <g
         id="g39"
         style="fill:#4756df;fill-opacity:1">
        <path
           d="m 2,0 v -17.03125 h 5.875 v 2.453125 h 0.0625 c 0.039062,-0.08203 0.109375,-0.191406 0.203125,-0.328125 0.101563,-0.132812 0.320313,-0.367188 0.65625,-0.703125 0.332031,-0.332031 0.6875,-0.628906 1.0625,-0.890625 0.375,-0.269531 0.859375,-0.507812 1.453125,-0.71875 0.601562,-0.207031 1.21875,-0.3125 1.84375,-0.3125 0.632812,0 1.257812,0.08984 1.875,0.265625 0.625,0.179687 1.082031,0.355469 1.375,0.53125 l 0.46875,0.265625 -2.46875,4.984375 c -0.730469,-0.625 -1.746094,-0.9375 -3.046875,-0.9375 -0.710937,0 -1.320313,0.15625 -1.828125,0.46875 -0.511719,0.3125 -0.871094,0.695313 -1.078125,1.140625 C 8.242188,-10.375 8.09375,-10 8,-9.6875 7.914062,-9.382812 7.875,-9.144531 7.875,-8.96875 V 0 Z m 0,0"
           id="path38"
           style="fill:#4756df;fill-opacity:1" />
      </g>
    </g>
  </g>
  <g
     fill="#000000"
     fill-opacity="1"
     id="g44"
     transform="translate(-66.306483,-152.50491)"
     style="opacity:1;mix-blend-mode:normal;fill:#4756df;fill-opacity:1">
    <g
       transform="translate(250.28881,195.74999)"
       id="g43"
       style="fill:#4756df;fill-opacity:1">
      <g
         id="g42"
         style="fill:#4756df;fill-opacity:1">
        <path
           d="M 19.21875,-7.703125 H 6.875 c 0,1.199219 0.382812,2.085937 1.15625,2.65625 0.78125,0.574219 1.625,0.859375 2.53125,0.859375 0.945312,0 1.695312,-0.125 2.25,-0.375 0.550781,-0.257812 1.179688,-0.765625 1.890625,-1.515625 l 4.25,2.125 C 17.179688,-0.984375 14.238281,0.5 10.125,0.5 7.5625,0.5 5.359375,-0.378906 3.515625,-2.140625 c -1.835937,-1.757813 -2.75,-3.878906 -2.75,-6.359375 0,-2.476562 0.914063,-4.601562 2.75,-6.375 1.84375,-1.769531 4.046875,-2.65625 6.609375,-2.65625 2.695312,0 4.894531,0.78125 6.59375,2.34375 1.695312,1.5625 2.546875,3.792969 2.546875,6.6875 0,0.398438 -0.01563,0.664062 -0.04687,0.796875 z m -12.171875,-3.25 h 6.46875 C 13.378906,-11.835938 13.03125,-12.519531 12.46875,-13 c -0.5625,-0.476562 -1.289062,-0.71875 -2.171875,-0.71875 -0.980469,0 -1.757813,0.257812 -2.328125,0.765625 -0.574219,0.511719 -0.882812,1.179687 -0.921875,2 z m 0,0"
           id="path41"
           style="fill:#4756df;fill-opacity:1" />
      </g>
    </g>
  </g>
  <g
     fill="#000000"
     fill-opacity="1"
     id="g47"
     transform="translate(-66.306483,-152.50491)"
     style="opacity:1;mix-blend-mode:normal;fill:#4756df;fill-opacity:1">
    <g
       transform="translate(267.18572,195.74999)"
       id="g46"
       style="fill:#4756df;fill-opacity:1">
      <g
         id="g45"
         style="fill:#4756df;fill-opacity:1">
        <path
           d="M 2,0 V -28.5625 H 7.875 V 0 Z m 0,0"
           id="path44"
           style="fill:#4756df;fill-opacity:1" />
      </g>
    </g>
  </g>
  <g
     fill="#000000"
     fill-opacity="1"
     id="g50"
     transform="translate(-66.306483,-152.50491)"
     style="opacity:1;mix-blend-mode:normal;fill:#4756df;fill-opacity:1">
    <g
       transform="translate(273.92368,195.74999)"
       id="g49"
       style="fill:#4756df;fill-opacity:1">
      <g
         id="g48"
         style="fill:#4756df;fill-opacity:1">
        <path
           d="M 2,0 V -28.5625 H 7.875 V 0 Z m 0,0"
           id="path47"
           style="fill:#4756df;fill-opacity:1" />
      </g>
    </g>
  </g>
  <g
     fill="#000000"
     fill-opacity="1"
     id="g53"
     transform="translate(-66.306483,-152.50491)"
     style="opacity:1;mix-blend-mode:normal;fill:#4756df;fill-opacity:1">
    <g
       transform="translate(280.66164,195.74999)"
       id="g52"
       style="fill:#4756df;fill-opacity:1">
      <g
         id="g51"
         style="fill:#4756df;fill-opacity:1">
        <path
           d="m 2.5625,-26.53125 c 0.6875,-0.6875 1.503906,-1.03125 2.453125,-1.03125 0.945313,0 1.765625,0.34375 2.453125,1.03125 0.6875,0.6875 1.03125,1.511719 1.03125,2.46875 0,0.949219 -0.34375,1.765625 -1.03125,2.453125 -0.6875,0.679687 -1.507812,1.015625 -2.453125,1.015625 -0.949219,0 -1.765625,-0.335938 -2.453125,-1.015625 -0.6875,-0.6875 -1.03125,-1.503906 -1.03125,-2.453125 0,-0.957031 0.34375,-1.78125 1.03125,-2.46875 z M 2,-17.03125 V 0 h 5.875 v -17.03125 z m 0,0"
           id="path50"
           style="fill:#4756df;fill-opacity:1" />
      </g>
    </g>
  </g>
  <g
     fill="#000000"
     fill-opacity="1"
     id="g56">
    <g
       transform="translate(287.56558,195.74999)"
       id="g55">
      <g
         id="g54" />
    </g>
  </g>
  <g
     fill="#000000"
     fill-opacity="1"
     id="g59"
     transform="translate(-66.306483,-152.50491)"
     style="opacity:1;mix-blend-mode:normal;fill:#4756df;fill-opacity:1">
    <g
       transform="translate(293.50676,195.74999)"
       id="g58"
       style="fill:#4756df;fill-opacity:1">
      <g
         id="g57"
         style="fill:#4756df;fill-opacity:1">
        <path
           d="m 5.78125,-7.109375 c 1.0625,0 1.960938,0.375 2.703125,1.125 0.738281,0.742187 1.109375,1.640625 1.109375,2.703125 0,1.03125 -0.371094,1.921875 -1.109375,2.671875 C 7.742188,0.128906 6.84375,0.5 5.78125,0.5 4.738281,0.5 3.847656,0.128906 3.109375,-0.609375 2.367188,-1.359375 2,-2.25 2,-3.28125 c 0,-1.0625 0.367188,-1.960938 1.109375,-2.703125 0.738281,-0.75 1.628906,-1.125 2.671875,-1.125 z m 0,0"
           id="path56"
           style="fill:#4756df;fill-opacity:1" />
      </g>
    </g>
  </g>
  <g
     fill="#000000"
     fill-opacity="1"
     id="g62"
     transform="translate(-66.306483,-152.50491)"
     style="opacity:1;mix-blend-mode:normal;fill:#4756df;fill-opacity:1">
    <g
       transform="translate(128.87296,218.30105)"
       id="g61"
       style="fill:#4756df;fill-opacity:1">
      <g
         id="g60"
         style="fill:#4756df;fill-opacity:1">
        <path
           d="M 0.5,-0.921875 C 0.4375,-1.015625 0.40625,-1.113281 0.40625,-1.21875 0.414062,-1.332031 0.484375,-1.429688 0.609375,-1.515625 0.679688,-1.566406 0.769531,-1.585938 0.875,-1.578125 c 0.101562,0 0.195312,0.046875 0.28125,0.140625 0.207031,0.25 0.445312,0.449219 0.71875,0.59375 0.269531,0.148438 0.597656,0.21875 0.984375,0.21875 0.175781,-0.007812 0.351563,-0.039062 0.53125,-0.09375 0.1875,-0.050781 0.34375,-0.140625 0.46875,-0.265625 0.125,-0.132813 0.1875,-0.3125 0.1875,-0.53125 0,-0.21875 -0.070313,-0.382813 -0.203125,-0.5 -0.125,-0.125 -0.292969,-0.222656 -0.5,-0.296875 C 3.144531,-2.394531 2.925781,-2.46875 2.6875,-2.53125 2.445312,-2.601562 2.203125,-2.679688 1.953125,-2.765625 1.710938,-2.847656 1.5,-2.957031 1.3125,-3.09375 1.125,-3.226562 0.96875,-3.394531 0.84375,-3.59375 0.726562,-3.789062 0.671875,-4.03125 0.671875,-4.3125 c 0,-0.34375 0.09375,-0.632812 0.28125,-0.875 0.1875,-0.25 0.429687,-0.441406 0.734375,-0.578125 C 2,-5.898438 2.34375,-5.96875 2.71875,-5.96875 c 0.207031,0 0.425781,0.027344 0.65625,0.078125 0.226562,0.042969 0.453125,0.125 0.671875,0.25 0.21875,0.117187 0.410156,0.273437 0.578125,0.46875 0.0625,0.074219 0.097656,0.167969 0.109375,0.28125 0.00781,0.117187 -0.042969,0.21875 -0.15625,0.3125 C 4.503906,-4.523438 4.414062,-4.5 4.3125,-4.5 4.207031,-4.507812 4.125,-4.550781 4.0625,-4.625 3.894531,-4.8125 3.691406,-4.953125 3.453125,-5.046875 3.222656,-5.148438 2.96875,-5.203125 2.6875,-5.203125 c -0.1875,0 -0.371094,0.027344 -0.546875,0.078125 -0.167969,0.054688 -0.308594,0.140625 -0.421875,0.265625 -0.117188,0.125 -0.171875,0.296875 -0.171875,0.515625 0,0.199219 0.0625,0.367188 0.1875,0.5 0.132813,0.125 0.3125,0.230469 0.53125,0.3125 0.21875,0.074219 0.457031,0.148438 0.71875,0.21875 0.238281,0.0625 0.46875,0.136719 0.6875,0.21875 0.226563,0.074219 0.429687,0.171875 0.609375,0.296875 0.175781,0.125 0.316406,0.292969 0.421875,0.5 0.101563,0.199219 0.15625,0.449219 0.15625,0.75 0,0.34375 -0.101563,0.640625 -0.296875,0.890625 -0.1875,0.25 -0.445312,0.445312 -0.765625,0.578125 -0.3125,0.125 -0.65625,0.1875 -1.03125,0.1875 -0.40625,0 -0.8125,-0.078125 -1.21875,-0.234375 C 1.148438,-0.28125 0.800781,-0.546875 0.5,-0.921875 Z m 0,0"
           id="path59"
           style="fill:#4756df;fill-opacity:1" />
      </g>
    </g>
  </g>
  <g
     fill="#000000"
     fill-opacity="1"
     id="g65"
     transform="translate(-66.306483,-152.50491)"
     style="opacity:1;mix-blend-mode:normal;fill:#4756df;fill-opacity:1">
    <g
       transform="translate(141.56215,218.30105)"
       id="g64"
       style="fill:#4756df;fill-opacity:1">
      <g
         id="g63"
         style="fill:#4756df;fill-opacity:1">
        <path
           d="m 1.703125,-0.46875 c 0,0.136719 -0.046875,0.25 -0.140625,0.34375 C 1.476562,-0.0390625 1.375,0 1.25,0 1.113281,0 1.003906,-0.0390625 0.921875,-0.125 c -0.085937,-0.09375 -0.125,-0.207031 -0.125,-0.34375 v -5 c 0,-0.125 0.039063,-0.226562 0.125,-0.3125 C 1.015625,-5.875 1.125,-5.921875 1.25,-5.921875 c 0.125,0 0.226562,0.046875 0.3125,0.140625 0.09375,0.085938 0.140625,0.1875 0.140625,0.3125 z M 1.25,-6.671875 c -0.1875,0 -0.328125,-0.035156 -0.421875,-0.109375 -0.085937,-0.070312 -0.125,-0.1875 -0.125,-0.34375 V -7.28125 C 0.703125,-7.445312 0.75,-7.566406 0.84375,-7.640625 0.945312,-7.710938 1.085938,-7.75 1.265625,-7.75 c 0.175781,0 0.3125,0.039062 0.40625,0.109375 0.09375,0.074219 0.140625,0.195313 0.140625,0.359375 V -7.125 c 0,0.15625 -0.046875,0.273438 -0.140625,0.34375 C 1.578125,-6.707031 1.4375,-6.671875 1.25,-6.671875 Z m 0,0"
           id="path62"
           style="fill:#4756df;fill-opacity:1" />
      </g>
    </g>
  </g>
  <g
     fill="#000000"
     fill-opacity="1"
     id="g68"
     transform="translate(-66.306483,-152.50491)"
     style="opacity:1;mix-blend-mode:normal;fill:#4756df;fill-opacity:1">
    <g
       transform="translate(151.40213,218.30105)"
       id="g67"
       style="fill:#4756df;fill-opacity:1">
      <g
         id="g66"
         style="fill:#4756df;fill-opacity:1">
        <path
           d="m 1.828125,-0.46875 c 0,0.136719 -0.046875,0.25 -0.140625,0.34375 C 1.59375,-0.0390625 1.484375,0 1.359375,0 c -0.125,0 -0.230469,-0.0390625 -0.3125,-0.125 -0.085937,-0.09375 -0.125,-0.207031 -0.125,-0.34375 v -7.421875 c 0,-0.125 0.039063,-0.226563 0.125,-0.3125 C 1.140625,-8.296875 1.25,-8.34375 1.375,-8.34375 c 0.132812,0 0.242188,0.046875 0.328125,0.140625 0.082031,0.085937 0.125,0.1875 0.125,0.3125 z m 0,0"
           id="path65"
           style="fill:#4756df;fill-opacity:1" />
      </g>
    </g>
  </g>
  <g
     fill="#000000"
     fill-opacity="1"
     id="g71"
     transform="translate(-66.306483,-152.50491)"
     style="opacity:1;mix-blend-mode:normal;fill:#4756df;fill-opacity:1">
    <g
       transform="translate(161.48985,218.30105)"
       id="g70"
       style="fill:#4756df;fill-opacity:1">
      <g
         id="g69"
         style="fill:#4756df;fill-opacity:1">
        <path
           d="M 2.59375,0 C 2.457031,0 2.34375,-0.0390625 2.25,-0.125 2.164062,-0.21875 2.125,-0.332031 2.125,-0.46875 V -6.875 L 2.25,-6.71875 0.984375,-5.828125 C 0.910156,-5.773438 0.820312,-5.75 0.71875,-5.75 c -0.125,0 -0.234375,-0.046875 -0.328125,-0.140625 -0.085937,-0.09375 -0.125,-0.203125 -0.125,-0.328125 0,-0.164062 0.078125,-0.296875 0.234375,-0.390625 l 1.78125,-1.1875 c 0.0625,-0.039063 0.125,-0.066406 0.1875,-0.078125 0.0625,-0.00781 0.117188,-0.015625 0.171875,-0.015625 0.132813,0 0.242187,0.046875 0.328125,0.140625 0.082031,0.085938 0.125,0.1875 0.125,0.3125 v 6.96875 c 0,0.136719 -0.046875,0.25 -0.140625,0.34375 C 2.859375,-0.0390625 2.738281,0 2.59375,0 Z m 0,0"
           id="path68"
           style="fill:#4756df;fill-opacity:1" />
      </g>
    </g>
  </g>
  <g
     fill="#000000"
     fill-opacity="1"
     id="g74"
     transform="translate(-66.306483,-152.50491)"
     style="opacity:1;mix-blend-mode:normal;fill:#4756df;fill-opacity:1">
    <g
       transform="translate(173.07539,218.30105)"
       id="g73"
       style="fill:#4756df;fill-opacity:1">
      <g
         id="g72"
         style="fill:#4756df;fill-opacity:1">
        <path
           d="m 1.09375,-1.3125 c 0.039062,0 0.085938,0.011719 0.140625,0.03125 0.0625,0.023438 0.128906,0.0625 0.203125,0.125 0.144531,0.136719 0.316406,0.246094 0.515625,0.328125 0.207031,0.085937 0.441406,0.125 0.703125,0.125 0.320312,0 0.617188,-0.070313 0.890625,-0.21875 0.269531,-0.15625 0.488281,-0.363281 0.65625,-0.625 0.175781,-0.269531 0.265625,-0.582031 0.265625,-0.9375 0,-0.382813 -0.089844,-0.695313 -0.265625,-0.9375 C 4.035156,-3.671875 3.820312,-3.851562 3.5625,-3.96875 3.300781,-4.082031 3.03125,-4.140625 2.75,-4.140625 c -0.105469,0 -0.203125,0.011719 -0.296875,0.03125 -0.085937,0.011719 -0.167969,0.027344 -0.25,0.046875 -0.085937,0.023438 -0.15625,0.03125 -0.21875,0.03125 -0.125,0 -0.226563,-0.039062 -0.296875,-0.125 -0.0625,-0.082031 -0.09375,-0.1875 -0.09375,-0.3125 0,-0.0625 0.00781,-0.117188 0.03125,-0.171875 0.03125,-0.0625 0.078125,-0.125 0.140625,-0.1875 l 2.1875,-2.375 0.1875,0.21875 H 0.9375 c -0.125,0 -0.230469,-0.039063 -0.3125,-0.125 C 0.539062,-7.191406 0.5,-7.289062 0.5,-7.40625 c 0,-0.125 0.039062,-0.222656 0.125,-0.296875 0.082031,-0.082031 0.1875,-0.125 0.3125,-0.125 h 3.671875 c 0.164063,0 0.285156,0.046875 0.359375,0.140625 0.070312,0.09375 0.109375,0.199219 0.109375,0.3125 0,0.0625 -0.015625,0.125 -0.046875,0.1875 C 5,-7.125 4.957031,-7.066406 4.90625,-7.015625 l -2.1875,2.375 -0.265625,-0.21875 c 0.039063,-0.03125 0.128906,-0.054687 0.265625,-0.078125 0.132812,-0.03125 0.242188,-0.046875 0.328125,-0.046875 0.425781,0 0.816406,0.105469 1.171875,0.3125 0.351562,0.199219 0.632812,0.480469 0.84375,0.84375 0.207031,0.367187 0.3125,0.792969 0.3125,1.28125 0,0.542969 -0.125,1.011719 -0.375,1.40625 C 4.75,-0.742188 4.40625,-0.4375 3.96875,-0.21875 3.539062,0 3.0625,0.109375 2.53125,0.109375 2.226562,0.109375 1.929688,0.0625 1.640625,-0.03125 1.347656,-0.125 1.097656,-0.257812 0.890625,-0.4375 0.796875,-0.488281 0.726562,-0.546875 0.6875,-0.609375 0.65625,-0.679688 0.640625,-0.753906 0.640625,-0.828125 c 0,-0.101563 0.039063,-0.207031 0.125,-0.3125 C 0.859375,-1.253906 0.96875,-1.3125 1.09375,-1.3125 Z m 0,0"
           id="path71"
           style="fill:#4756df;fill-opacity:1" />
      </g>
    </g>
  </g>
  <g
     fill="#000000"
     fill-opacity="1"
     id="g77"
     transform="translate(-66.306483,-152.50491)"
     style="opacity:1;mix-blend-mode:normal;fill:#4756df;fill-opacity:1">
    <g
       transform="translate(186.37271,218.30105)"
       id="g76"
       style="fill:#4756df;fill-opacity:1">
      <g
         id="g75"
         style="fill:#4756df;fill-opacity:1">
        <path
           d="M 2.59375,0 C 2.457031,0 2.34375,-0.0390625 2.25,-0.125 2.164062,-0.21875 2.125,-0.332031 2.125,-0.46875 V -6.875 L 2.25,-6.71875 0.984375,-5.828125 C 0.910156,-5.773438 0.820312,-5.75 0.71875,-5.75 c -0.125,0 -0.234375,-0.046875 -0.328125,-0.140625 -0.085937,-0.09375 -0.125,-0.203125 -0.125,-0.328125 0,-0.164062 0.078125,-0.296875 0.234375,-0.390625 l 1.78125,-1.1875 c 0.0625,-0.039063 0.125,-0.066406 0.1875,-0.078125 0.0625,-0.00781 0.117188,-0.015625 0.171875,-0.015625 0.132813,0 0.242187,0.046875 0.328125,0.140625 0.082031,0.085938 0.125,0.1875 0.125,0.3125 v 6.96875 c 0,0.136719 -0.046875,0.25 -0.140625,0.34375 C 2.859375,-0.0390625 2.738281,0 2.59375,0 Z m 0,0"
           id="path74"
           style="fill:#4756df;fill-opacity:1" />
      </g>
    </g>
  </g>
  <g
     fill="#000000"
     fill-opacity="1"
     id="g80"
     transform="translate(-66.306483,-152.50491)"
     style="opacity:1;mix-blend-mode:normal;fill:#4756df;fill-opacity:1">
    <g
       transform="translate(197.95825,218.30105)"
       id="g79"
       style="fill:#4756df;fill-opacity:1">
      <g
         id="g78"
         style="fill:#4756df;fill-opacity:1">
        <path
           d="m 3.421875,-5.96875 c 0.382813,0 0.726563,0.042969 1.03125,0.125 0.3125,0.085938 0.554687,0.199219 0.734375,0.34375 0.1875,0.136719 0.28125,0.292969 0.28125,0.46875 0,0.105469 -0.039062,0.203125 -0.109375,0.296875 -0.0625,0.085937 -0.152344,0.125 -0.265625,0.125 -0.105469,0 -0.1875,-0.015625 -0.25,-0.046875 C 4.78125,-4.695312 4.71875,-4.75 4.65625,-4.8125 4.601562,-4.875 4.523438,-4.925781 4.421875,-4.96875 4.335938,-5.019531 4.207031,-5.0625 4.03125,-5.09375 3.863281,-5.125 3.691406,-5.140625 3.515625,-5.140625 c -0.417969,0 -0.78125,0.101563 -1.09375,0.296875 -0.3125,0.199219 -0.558594,0.464844 -0.734375,0.796875 -0.179688,0.324219 -0.265625,0.699219 -0.265625,1.125 0,0.417969 0.082031,0.792969 0.25,1.125 0.175781,0.324219 0.414063,0.585937 0.71875,0.78125 0.3125,0.199219 0.671875,0.296875 1.078125,0.296875 0.257812,0 0.46875,-0.019531 0.625,-0.0625 C 4.257812,-0.832031 4.394531,-0.890625 4.5,-0.953125 4.632812,-1.023438 4.734375,-1.097656 4.796875,-1.171875 4.867188,-1.242188 4.96875,-1.28125 5.09375,-1.28125 c 0.125,0 0.222656,0.042969 0.296875,0.125 C 5.460938,-1.070312 5.5,-0.972656 5.5,-0.859375 c 0,0.136719 -0.09375,0.28125 -0.28125,0.4375 -0.1875,0.148437 -0.445312,0.273437 -0.765625,0.375 -0.3125,0.1015625 -0.671875,0.15625 -1.078125,0.15625 -0.574219,0 -1.074219,-0.1289062 -1.5,-0.390625 -0.429688,-0.269531 -0.761719,-0.632812 -1,-1.09375 -0.242188,-0.46875 -0.359375,-0.984375 -0.359375,-1.546875 0,-0.570313 0.117187,-1.085937 0.359375,-1.546875 0.25,-0.457031 0.59375,-0.820312 1.03125,-1.09375 0.4375,-0.269531 0.941406,-0.40625 1.515625,-0.40625 z m 0,0"
           id="path77"
           style="fill:#4756df;fill-opacity:1" />
      </g>
    </g>
  </g>
  <g
     fill="#000000"
     fill-opacity="1"
     id="g83"
     transform="translate(-66.306483,-152.50491)"
     style="opacity:1;mix-blend-mode:normal;fill:#4756df;fill-opacity:1">
    <g
       transform="translate(211.1542,218.30105)"
       id="g82"
       style="fill:#4756df;fill-opacity:1">
      <g
         id="g81"
         style="fill:#4756df;fill-opacity:1">
        <path
           d="m 6.359375,-2.921875 c 0,0.585937 -0.132813,1.105469 -0.390625,1.5625 -0.25,0.460937 -0.601562,0.820313 -1.046875,1.078125 -0.4375,0.2617188 -0.929687,0.390625 -1.46875,0.390625 -0.554687,0 -1.054687,-0.1289062 -1.5,-0.390625 -0.4375,-0.257812 -0.789063,-0.617188 -1.046875,-1.078125 -0.261719,-0.457031 -0.390625,-0.976563 -0.390625,-1.5625 0,-0.59375 0.128906,-1.117187 0.390625,-1.578125 0.257812,-0.457031 0.609375,-0.816406 1.046875,-1.078125 0.445313,-0.257813 0.945313,-0.390625 1.5,-0.390625 0.539063,0 1.03125,0.132812 1.46875,0.390625 0.445313,0.261719 0.796875,0.621094 1.046875,1.078125 0.257812,0.460938 0.390625,0.984375 0.390625,1.578125 z m -0.890625,0 c 0,-0.4375 -0.089844,-0.820313 -0.265625,-1.15625 -0.179687,-0.332031 -0.421875,-0.59375 -0.734375,-0.78125 -0.304688,-0.1875 -0.640625,-0.28125 -1.015625,-0.28125 -0.386719,0 -0.734375,0.09375 -1.046875,0.28125 -0.304688,0.1875 -0.542969,0.449219 -0.71875,0.78125 -0.179688,0.335937 -0.265625,0.71875 -0.265625,1.15625 0,0.429687 0.085937,0.808594 0.265625,1.140625 0.175781,0.324219 0.414062,0.585938 0.71875,0.78125 0.3125,0.1875 0.660156,0.28125 1.046875,0.28125 0.375,0 0.710937,-0.09375 1.015625,-0.28125 0.3125,-0.195312 0.554688,-0.457031 0.734375,-0.78125 0.175781,-0.332031 0.265625,-0.710938 0.265625,-1.140625 z m 0,0"
           id="path80"
           style="fill:#4756df;fill-opacity:1" />
      </g>
    </g>
  </g>
  <g
     fill="#000000"
     fill-opacity="1"
     id="g86"
     transform="translate(-66.306483,-152.50491)"
     style="opacity:1;mix-blend-mode:normal;fill:#4756df;fill-opacity:1">
    <g
       transform="translate(225.38624,218.30105)"
       id="g85"
       style="fill:#4756df;fill-opacity:1">
      <g
         id="g84"
         style="fill:#4756df;fill-opacity:1">
        <path
           d="m 5.625,-8.34375 c 0.132812,0 0.242188,0.046875 0.328125,0.140625 0.082031,0.085937 0.125,0.1875 0.125,0.3125 v 7.421875 c 0,0.136719 -0.042969,0.25 -0.125,0.34375 C 5.867188,-0.0390625 5.757812,0 5.625,0 5.5,0 5.394531,-0.0390625 5.3125,-0.125 5.226562,-0.21875 5.1875,-0.332031 5.1875,-0.46875 v -1.0625 l 0.203125,-0.078125 c 0,0.179687 -0.058594,0.367187 -0.171875,0.5625 -0.105469,0.199219 -0.257812,0.386719 -0.453125,0.5625 -0.199219,0.179687 -0.433594,0.324219 -0.703125,0.4375 -0.261719,0.1015625 -0.546875,0.15625 -0.859375,0.15625 -0.5,0 -0.953125,-0.1289062 -1.359375,-0.390625 C 1.4375,-0.539062 1.113281,-0.898438 0.875,-1.359375 0.632812,-1.816406 0.515625,-2.335938 0.515625,-2.921875 0.515625,-3.515625 0.632812,-4.039062 0.875,-4.5 1.113281,-4.957031 1.429688,-5.316406 1.828125,-5.578125 2.234375,-5.835938 2.6875,-5.96875 3.1875,-5.96875 c 0.3125,0 0.609375,0.054688 0.890625,0.15625 0.28125,0.105469 0.519531,0.25 0.71875,0.4375 0.207031,0.179688 0.367187,0.375 0.484375,0.59375 0.125,0.210938 0.1875,0.421875 0.1875,0.640625 l -0.28125,-0.0625 v -3.6875 c 0,-0.125 0.039062,-0.226563 0.125,-0.3125 C 5.394531,-8.296875 5.5,-8.34375 5.625,-8.34375 Z m -2.3125,7.625 c 0.375,0 0.707031,-0.09375 1,-0.28125 0.289062,-0.195312 0.515625,-0.460938 0.671875,-0.796875 0.164063,-0.332031 0.25,-0.707031 0.25,-1.125 0,-0.4375 -0.085937,-0.816406 -0.25,-1.140625 -0.15625,-0.332031 -0.382813,-0.59375 -0.671875,-0.78125 -0.292969,-0.195312 -0.625,-0.296875 -1,-0.296875 -0.367188,0 -0.695312,0.101563 -0.984375,0.296875 -0.292969,0.1875 -0.523437,0.449219 -0.6875,0.78125 -0.167969,0.324219 -0.25,0.703125 -0.25,1.140625 0,0.40625 0.082031,0.777344 0.25,1.109375 0.164063,0.335938 0.394531,0.601562 0.6875,0.796875 0.289063,0.199219 0.617187,0.296875 0.984375,0.296875 z m 0,0"
           id="path83"
           style="fill:#4756df;fill-opacity:1" />
      </g>
    </g>
  </g>
  <g
     fill="#000000"
     fill-opacity="1"
     id="g89"
     transform="translate(-66.306483,-152.50491)"
     style="opacity:1;mix-blend-mode:normal;fill:#4756df;fill-opacity:1">
    <g
       transform="translate(239.65205,218.30105)"
       id="g88"
       style="fill:#4756df;fill-opacity:1">
      <g
         id="g87"
         style="fill:#4756df;fill-opacity:1">
        <path
           d="m 3.53125,0.109375 c -0.605469,0 -1.136719,-0.125 -1.59375,-0.375 -0.449219,-0.257813 -0.796875,-0.613281 -1.046875,-1.0625 -0.25,-0.445313 -0.375,-0.960937 -0.375,-1.546875 0,-0.65625 0.128906,-1.210938 0.390625,-1.671875 0.257812,-0.457031 0.597656,-0.804687 1.015625,-1.046875 0.414063,-0.25 0.859375,-0.375 1.328125,-0.375 0.34375,0 0.675781,0.0625 1,0.1875 0.320312,0.125 0.601562,0.3125 0.84375,0.5625 0.25,0.242188 0.445312,0.53125 0.59375,0.875 0.15625,0.34375 0.238281,0.726562 0.25,1.140625 0,0.125 -0.046875,0.230469 -0.140625,0.3125 -0.085937,0.085937 -0.1875,0.125 -0.3125,0.125 H 1.03125 l -0.203125,-0.78125 h 4.34375 l -0.1875,0.15625 v -0.25 C 4.960938,-3.941406 4.863281,-4.203125 4.6875,-4.421875 4.507812,-4.648438 4.289062,-4.820312 4.03125,-4.9375 3.78125,-5.0625 3.519531,-5.125 3.25,-5.125 c -0.230469,0 -0.460938,0.042969 -0.6875,0.125 -0.21875,0.074219 -0.417969,0.199219 -0.59375,0.375 -0.167969,0.179688 -0.308594,0.40625 -0.421875,0.6875 -0.105469,0.273438 -0.15625,0.605469 -0.15625,1 0,0.4375 0.085937,0.824219 0.265625,1.15625 0.175781,0.324219 0.421875,0.585938 0.734375,0.78125 0.3125,0.1875 0.679687,0.28125 1.109375,0.28125 0.257812,0 0.484375,-0.03125 0.671875,-0.09375 0.195313,-0.070312 0.367187,-0.160156 0.515625,-0.265625 0.144531,-0.101563 0.265625,-0.207031 0.359375,-0.3125 0.09375,-0.0625 0.1875,-0.09375 0.28125,-0.09375 0.113281,0 0.207031,0.039063 0.28125,0.109375 0.070313,0.074219 0.109375,0.164062 0.109375,0.265625 0,0.136719 -0.0625,0.25 -0.1875,0.34375 C 5.320312,-0.535156 5.035156,-0.332031 4.671875,-0.15625 4.316406,0.0195312 3.9375,0.109375 3.53125,0.109375 Z m 0,0"
           id="path86"
           style="fill:#4756df;fill-opacity:1" />
      </g>
    </g>
  </g>
</svg>
