<svg xmlns="http://www.w3.org/2000/svg" xmlns:xlink="http://www.w3.org/1999/xlink" width="500" zoomAndPan="magnify" viewBox="0 0 375 374.999991" height="500" preserveAspectRatio="xMidYMid meet" version="1.0"><defs><g/></defs><rect x="-37.5" width="450" fill="#ffffff" y="-37.499999" height="449.999989" fill-opacity="1"/><rect x="-37.5" width="450" fill="#ffffff" y="-37.499999" height="449.999989" fill-opacity="1"/><rect x="-37.5" width="450" fill="#ffffff" y="-37.499999" height="449.999989" fill-opacity="1"/><g fill="#000000" fill-opacity="1"><g transform="translate(69.903731, 195.749987)"><g><path d="M 9.390625 -17.53125 C 10.367188 -17.53125 11.332031 -17.421875 12.28125 -17.203125 C 13.238281 -16.984375 13.945312 -16.757812 14.40625 -16.53125 L 15.109375 -16.203125 L 13.1875 -12.359375 C 11.851562 -13.066406 10.585938 -13.421875 9.390625 -13.421875 C 8.734375 -13.421875 8.265625 -13.347656 7.984375 -13.203125 C 7.710938 -13.054688 7.578125 -12.785156 7.578125 -12.390625 C 7.578125 -12.296875 7.585938 -12.203125 7.609375 -12.109375 C 7.628906 -12.023438 7.671875 -11.941406 7.734375 -11.859375 C 7.804688 -11.785156 7.867188 -11.722656 7.921875 -11.671875 C 7.972656 -11.617188 8.066406 -11.554688 8.203125 -11.484375 C 8.335938 -11.421875 8.441406 -11.375 8.515625 -11.34375 C 8.597656 -11.3125 8.726562 -11.257812 8.90625 -11.1875 C 9.082031 -11.125 9.210938 -11.070312 9.296875 -11.03125 C 9.390625 -11 9.539062 -10.953125 9.75 -10.890625 C 9.957031 -10.828125 10.117188 -10.785156 10.234375 -10.765625 C 10.910156 -10.554688 11.503906 -10.332031 12.015625 -10.09375 C 12.523438 -9.851562 13.0625 -9.519531 13.625 -9.09375 C 14.195312 -8.675781 14.632812 -8.144531 14.9375 -7.5 C 15.25 -6.863281 15.40625 -6.132812 15.40625 -5.3125 C 15.40625 -1.4375 12.71875 0.5 7.34375 0.5 C 6.125 0.5 4.960938 0.3125 3.859375 -0.0625 C 2.765625 -0.4375 1.976562 -0.816406 1.5 -1.203125 L 0.765625 -1.796875 L 3.15625 -5.8125 C 3.332031 -5.65625 3.5625 -5.472656 3.84375 -5.265625 C 4.132812 -5.054688 4.65625 -4.769531 5.40625 -4.40625 C 6.164062 -4.039062 6.820312 -3.859375 7.375 -3.859375 C 8.59375 -3.859375 9.203125 -4.265625 9.203125 -5.078125 C 9.203125 -5.453125 9.046875 -5.742188 8.734375 -5.953125 C 8.421875 -6.171875 7.894531 -6.410156 7.15625 -6.671875 C 6.414062 -6.941406 5.832031 -7.1875 5.40625 -7.40625 C 4.34375 -7.957031 3.5 -8.582031 2.875 -9.28125 C 2.257812 -9.976562 1.953125 -10.898438 1.953125 -12.046875 C 1.953125 -13.773438 2.625 -15.117188 3.96875 -16.078125 C 5.3125 -17.046875 7.117188 -17.53125 9.390625 -17.53125 Z M 9.390625 -17.53125 "/></g></g></g><g fill="#000000" fill-opacity="1"><g transform="translate(83.115523, 195.749987)"><g><path d="M 2.5625 -26.53125 C 3.25 -27.21875 4.066406 -27.5625 5.015625 -27.5625 C 5.960938 -27.5625 6.78125 -27.21875 7.46875 -26.53125 C 8.15625 -25.84375 8.5 -25.019531 8.5 -24.0625 C 8.5 -23.113281 8.15625 -22.296875 7.46875 -21.609375 C 6.78125 -20.929688 5.960938 -20.59375 5.015625 -20.59375 C 4.066406 -20.59375 3.25 -20.929688 2.5625 -21.609375 C 1.875 -22.296875 1.53125 -23.113281 1.53125 -24.0625 C 1.53125 -25.019531 1.875 -25.84375 2.5625 -26.53125 Z M 2 -17.03125 L 2 0 L 7.875 0 L 7.875 -17.03125 Z M 2 -17.03125 "/></g></g></g><g fill="#000000" fill-opacity="1"><g transform="translate(90.01948, 195.749987)"><g><path d="M 2 0 L 2 -28.5625 L 7.875 -28.5625 L 7.875 0 Z M 2 0 "/></g></g></g><g fill="#000000" fill-opacity="1"><g transform="translate(96.75744, 195.749987)"><g><path d="M 6.3125 -17.03125 L 10.453125 -7.765625 L 14.609375 -17.03125 L 21.578125 -17.03125 L 12.453125 0 L 8.46875 0 L -0.671875 -17.03125 Z M 6.3125 -17.03125 "/></g></g></g><g fill="#000000" fill-opacity="1"><g transform="translate(114.550713, 195.749987)"><g><path d="M 3.15625 -2.109375 C 1.5625 -3.847656 0.765625 -5.976562 0.765625 -8.5 C 0.765625 -11.019531 1.5625 -13.15625 3.15625 -14.90625 C 4.75 -16.65625 6.773438 -17.53125 9.234375 -17.53125 C 11.492188 -17.53125 13.351562 -16.820312 14.8125 -15.40625 L 14.8125 -17.03125 L 20.6875 -17.03125 L 20.6875 0 L 14.875 0 L 14.875 -1.921875 L 14.8125 -1.921875 C 13.351562 -0.304688 11.492188 0.5 9.234375 0.5 C 6.773438 0.5 4.75 -0.367188 3.15625 -2.109375 Z M 8.140625 -11.390625 C 7.378906 -10.640625 7 -9.675781 7 -8.5 C 7 -7.320312 7.363281 -6.363281 8.09375 -5.625 C 8.832031 -4.882812 9.796875 -4.515625 10.984375 -4.515625 C 12.140625 -4.515625 13.085938 -4.890625 13.828125 -5.640625 C 14.566406 -6.398438 14.9375 -7.351562 14.9375 -8.5 C 14.9375 -9.675781 14.554688 -10.640625 13.796875 -11.390625 C 13.035156 -12.140625 12.097656 -12.515625 10.984375 -12.515625 C 9.859375 -12.515625 8.910156 -12.140625 8.140625 -11.390625 Z M 8.140625 -11.390625 "/></g></g></g><g fill="#000000" fill-opacity="1"><g transform="translate(134.103538, 195.749987)"><g><path d="M 2 0 L 2 -17.03125 L 7.875 -17.03125 L 7.875 -15.234375 L 7.9375 -15.234375 C 9.46875 -16.765625 11.09375 -17.53125 12.8125 -17.53125 C 13.65625 -17.53125 14.488281 -17.421875 15.3125 -17.203125 C 16.144531 -16.984375 16.941406 -16.640625 17.703125 -16.171875 C 18.472656 -15.703125 19.09375 -15.039062 19.5625 -14.1875 C 20.039062 -13.34375 20.28125 -12.351562 20.28125 -11.21875 L 20.28125 0 L 14.40625 0 L 14.40625 -9.625 C 14.40625 -10.507812 14.125 -11.285156 13.5625 -11.953125 C 13 -12.617188 12.265625 -12.953125 11.359375 -12.953125 C 10.472656 -12.953125 9.671875 -12.609375 8.953125 -11.921875 C 8.234375 -11.234375 7.875 -10.46875 7.875 -9.625 L 7.875 0 Z M 2 0 "/></g></g></g><g fill="#000000" fill-opacity="1"><g transform="translate(152.925989, 195.749987)"><g><path d="M 3.59375 -2.015625 C 1.707031 -3.703125 0.765625 -5.863281 0.765625 -8.5 C 0.765625 -11.132812 1.75 -13.296875 3.71875 -14.984375 C 5.6875 -16.679688 8.125 -17.53125 11.03125 -17.53125 C 13.882812 -17.53125 16.289062 -16.675781 18.25 -14.96875 C 20.207031 -13.269531 21.1875 -11.113281 21.1875 -8.5 C 21.1875 -5.882812 20.226562 -3.726562 18.3125 -2.03125 C 16.394531 -0.34375 13.96875 0.5 11.03125 0.5 C 7.96875 0.5 5.488281 -0.335938 3.59375 -2.015625 Z M 8.140625 -11.390625 C 7.378906 -10.640625 7 -9.675781 7 -8.5 C 7 -7.320312 7.363281 -6.363281 8.09375 -5.625 C 8.832031 -4.882812 9.796875 -4.515625 10.984375 -4.515625 C 12.140625 -4.515625 13.085938 -4.890625 13.828125 -5.640625 C 14.566406 -6.398438 14.9375 -7.351562 14.9375 -8.5 C 14.9375 -9.675781 14.554688 -10.640625 13.796875 -11.390625 C 13.035156 -12.140625 12.097656 -12.515625 10.984375 -12.515625 C 9.859375 -12.515625 8.910156 -12.140625 8.140625 -11.390625 Z M 8.140625 -11.390625 "/></g></g></g><g fill="#000000" fill-opacity="1"><g transform="translate(171.74844, 195.749987)"><g/></g></g><g fill="#000000" fill-opacity="1"><g transform="translate(177.689628, 195.749987)"><g><path d="M 11.0625 -12.71875 C 9.945312 -12.71875 8.988281 -12.304688 8.1875 -11.484375 C 7.394531 -10.671875 7 -9.6875 7 -8.53125 C 7 -7.363281 7.394531 -6.367188 8.1875 -5.546875 C 8.988281 -4.722656 9.945312 -4.3125 11.0625 -4.3125 C 11.59375 -4.3125 12.09375 -4.378906 12.5625 -4.515625 C 13.039062 -4.648438 13.390625 -4.785156 13.609375 -4.921875 L 13.90625 -5.109375 L 15.90625 -1.03125 C 15.75 -0.914062 15.53125 -0.773438 15.25 -0.609375 C 14.976562 -0.441406 14.347656 -0.21875 13.359375 0.0625 C 12.378906 0.351562 11.320312 0.5 10.1875 0.5 C 7.6875 0.5 5.488281 -0.378906 3.59375 -2.140625 C 1.707031 -3.898438 0.765625 -6.007812 0.765625 -8.46875 C 0.765625 -10.945312 1.707031 -13.078125 3.59375 -14.859375 C 5.488281 -16.640625 7.6875 -17.53125 10.1875 -17.53125 C 11.320312 -17.53125 12.363281 -17.394531 13.3125 -17.125 C 14.269531 -16.863281 14.945312 -16.601562 15.34375 -16.34375 L 15.90625 -15.9375 L 13.90625 -11.921875 C 13.175781 -12.453125 12.226562 -12.71875 11.0625 -12.71875 Z M 11.0625 -12.71875 "/></g></g></g><g fill="#000000" fill-opacity="1"><g transform="translate(190.86822, 195.749987)"><g><path d="M 2.5625 -26.53125 C 3.25 -27.21875 4.066406 -27.5625 5.015625 -27.5625 C 5.960938 -27.5625 6.78125 -27.21875 7.46875 -26.53125 C 8.15625 -25.84375 8.5 -25.019531 8.5 -24.0625 C 8.5 -23.113281 8.15625 -22.296875 7.46875 -21.609375 C 6.78125 -20.929688 5.960938 -20.59375 5.015625 -20.59375 C 4.066406 -20.59375 3.25 -20.929688 2.5625 -21.609375 C 1.875 -22.296875 1.53125 -23.113281 1.53125 -24.0625 C 1.53125 -25.019531 1.875 -25.84375 2.5625 -26.53125 Z M 2 -17.03125 L 2 0 L 7.875 0 L 7.875 -17.03125 Z M 2 -17.03125 "/></g></g></g><g fill="#000000" fill-opacity="1"><g transform="translate(197.772177, 195.749987)"><g><path d="M 19.53125 -14.90625 C 21.125 -13.15625 21.921875 -11.019531 21.921875 -8.5 C 21.921875 -5.976562 21.125 -3.847656 19.53125 -2.109375 C 17.9375 -0.367188 15.910156 0.5 13.453125 0.5 C 11.191406 0.5 9.332031 -0.304688 7.875 -1.921875 L 7.796875 -1.921875 L 7.796875 0 L 2 0 L 2 -28.5625 L 7.875 -28.5625 L 7.875 -15.40625 C 9.332031 -16.820312 11.191406 -17.53125 13.453125 -17.53125 C 15.910156 -17.53125 17.9375 -16.65625 19.53125 -14.90625 Z M 14.578125 -5.625 C 15.304688 -6.363281 15.671875 -7.320312 15.671875 -8.5 C 15.671875 -9.675781 15.285156 -10.640625 14.515625 -11.390625 C 13.753906 -12.140625 12.8125 -12.515625 11.6875 -12.515625 C 10.582031 -12.515625 9.644531 -12.140625 8.875 -11.390625 C 8.113281 -10.640625 7.734375 -9.675781 7.734375 -8.5 C 7.734375 -7.351562 8.101562 -6.398438 8.84375 -5.640625 C 9.59375 -4.890625 10.539062 -4.515625 11.6875 -4.515625 C 12.882812 -4.515625 13.847656 -4.882812 14.578125 -5.625 Z M 14.578125 -5.625 "/></g></g></g><g fill="#000000" fill-opacity="1"><g transform="translate(217.325002, 195.749987)"><g><path d="M 3.15625 -2.109375 C 1.5625 -3.847656 0.765625 -5.976562 0.765625 -8.5 C 0.765625 -11.019531 1.5625 -13.15625 3.15625 -14.90625 C 4.75 -16.65625 6.773438 -17.53125 9.234375 -17.53125 C 11.492188 -17.53125 13.351562 -16.820312 14.8125 -15.40625 L 14.8125 -17.03125 L 20.6875 -17.03125 L 20.6875 0 L 14.875 0 L 14.875 -1.921875 L 14.8125 -1.921875 C 13.351562 -0.304688 11.492188 0.5 9.234375 0.5 C 6.773438 0.5 4.75 -0.367188 3.15625 -2.109375 Z M 8.140625 -11.390625 C 7.378906 -10.640625 7 -9.675781 7 -8.5 C 7 -7.320312 7.363281 -6.363281 8.09375 -5.625 C 8.832031 -4.882812 9.796875 -4.515625 10.984375 -4.515625 C 12.140625 -4.515625 13.085938 -4.890625 13.828125 -5.640625 C 14.566406 -6.398438 14.9375 -7.351562 14.9375 -8.5 C 14.9375 -9.675781 14.554688 -10.640625 13.796875 -11.390625 C 13.035156 -12.140625 12.097656 -12.515625 10.984375 -12.515625 C 9.859375 -12.515625 8.910156 -12.140625 8.140625 -11.390625 Z M 8.140625 -11.390625 "/></g></g></g><g fill="#000000" fill-opacity="1"><g transform="translate(236.877827, 195.749987)"><g><path d="M 2 0 L 2 -17.03125 L 7.875 -17.03125 L 7.875 -14.578125 L 7.9375 -14.578125 C 7.976562 -14.660156 8.046875 -14.769531 8.140625 -14.90625 C 8.242188 -15.039062 8.460938 -15.273438 8.796875 -15.609375 C 9.128906 -15.941406 9.484375 -16.238281 9.859375 -16.5 C 10.234375 -16.769531 10.71875 -17.007812 11.3125 -17.21875 C 11.914062 -17.425781 12.53125 -17.53125 13.15625 -17.53125 C 13.789062 -17.53125 14.414062 -17.441406 15.03125 -17.265625 C 15.65625 -17.085938 16.113281 -16.910156 16.40625 -16.734375 L 16.875 -16.46875 L 14.40625 -11.484375 C 13.675781 -12.109375 12.660156 -12.421875 11.359375 -12.421875 C 10.648438 -12.421875 10.039062 -12.265625 9.53125 -11.953125 C 9.019531 -11.640625 8.660156 -11.257812 8.453125 -10.8125 C 8.242188 -10.375 8.09375 -10 8 -9.6875 C 7.914062 -9.382812 7.875 -9.144531 7.875 -8.96875 L 7.875 0 Z M 2 0 "/></g></g></g><g fill="#000000" fill-opacity="1"><g transform="translate(250.288814, 195.749987)"><g><path d="M 19.21875 -7.703125 L 6.875 -7.703125 C 6.875 -6.503906 7.257812 -5.617188 8.03125 -5.046875 C 8.8125 -4.472656 9.65625 -4.1875 10.5625 -4.1875 C 11.507812 -4.1875 12.257812 -4.3125 12.8125 -4.5625 C 13.363281 -4.820312 13.992188 -5.328125 14.703125 -6.078125 L 18.953125 -3.953125 C 17.179688 -0.984375 14.238281 0.5 10.125 0.5 C 7.5625 0.5 5.359375 -0.378906 3.515625 -2.140625 C 1.679688 -3.898438 0.765625 -6.019531 0.765625 -8.5 C 0.765625 -10.976562 1.679688 -13.101562 3.515625 -14.875 C 5.359375 -16.644531 7.5625 -17.53125 10.125 -17.53125 C 12.820312 -17.53125 15.019531 -16.75 16.71875 -15.1875 C 18.414062 -13.625 19.265625 -11.394531 19.265625 -8.5 C 19.265625 -8.101562 19.25 -7.835938 19.21875 -7.703125 Z M 7.046875 -10.953125 L 13.515625 -10.953125 C 13.378906 -11.835938 13.03125 -12.519531 12.46875 -13 C 11.90625 -13.476562 11.179688 -13.71875 10.296875 -13.71875 C 9.316406 -13.71875 8.539062 -13.460938 7.96875 -12.953125 C 7.394531 -12.441406 7.085938 -11.773438 7.046875 -10.953125 Z M 7.046875 -10.953125 "/></g></g></g><g fill="#000000" fill-opacity="1"><g transform="translate(267.185716, 195.749987)"><g><path d="M 2 0 L 2 -28.5625 L 7.875 -28.5625 L 7.875 0 Z M 2 0 "/></g></g></g><g fill="#000000" fill-opacity="1"><g transform="translate(273.923677, 195.749987)"><g><path d="M 2 0 L 2 -28.5625 L 7.875 -28.5625 L 7.875 0 Z M 2 0 "/></g></g></g><g fill="#000000" fill-opacity="1"><g transform="translate(280.661637, 195.749987)"><g><path d="M 2.5625 -26.53125 C 3.25 -27.21875 4.066406 -27.5625 5.015625 -27.5625 C 5.960938 -27.5625 6.78125 -27.21875 7.46875 -26.53125 C 8.15625 -25.84375 8.5 -25.019531 8.5 -24.0625 C 8.5 -23.113281 8.15625 -22.296875 7.46875 -21.609375 C 6.78125 -20.929688 5.960938 -20.59375 5.015625 -20.59375 C 4.066406 -20.59375 3.25 -20.929688 2.5625 -21.609375 C 1.875 -22.296875 1.53125 -23.113281 1.53125 -24.0625 C 1.53125 -25.019531 1.875 -25.84375 2.5625 -26.53125 Z M 2 -17.03125 L 2 0 L 7.875 0 L 7.875 -17.03125 Z M 2 -17.03125 "/></g></g></g><g fill="#000000" fill-opacity="1"><g transform="translate(287.565583, 195.749987)"><g/></g></g><g fill="#000000" fill-opacity="1"><g transform="translate(293.50676, 195.749987)"><g><path d="M 5.78125 -7.109375 C 6.84375 -7.109375 7.742188 -6.734375 8.484375 -5.984375 C 9.222656 -5.242188 9.59375 -4.34375 9.59375 -3.28125 C 9.59375 -2.25 9.222656 -1.359375 8.484375 -0.609375 C 7.742188 0.128906 6.84375 0.5 5.78125 0.5 C 4.738281 0.5 3.847656 0.128906 3.109375 -0.609375 C 2.367188 -1.359375 2 -2.25 2 -3.28125 C 2 -4.34375 2.367188 -5.242188 3.109375 -5.984375 C 3.847656 -6.734375 4.738281 -7.109375 5.78125 -7.109375 Z M 5.78125 -7.109375 "/></g></g></g></svg>